# xmcd CD database file
#
# Track frame offsets:
#	150
#	17487
#	31459
#	57710
#	92037
#
# Disc length: 1671 seconds
#
# Revision: 5
# Processed by: cddbd v1.5PL3 Copyright (c) Steve Scherf et al.
# Submitted via: CDex 1.51
#
DISCID=3a068505
DTITLE=Paul Van Dyk - We Are Alive (Single)
DYEAR=1900
DGENRE=
TTITLE0=We Are Alive (feat Jennifer Brown, Radio Mix [Full On Vocal])
TTITLE1=We Are Alive (feat Jennifer Brown, Radio Mix)
TTITLE2=We Are Alive (feat Jennifer Brown, Vandit Vocal Mix)
TTITLE3=We Are Alive (feat Jennifer Brown, Breathless Mix)
TTITLE4=We Are Alive (feat Jennifer Brown, Orginal Mix)
EXTD=
EXTT0=
EXTT1=
EXTT2=
EXTT3=
EXTT4=
PLAYORDER=
